<?xml version="1.0" encoding="UTF-8"?>
<svg version="1.1" xmlns="http://www.w3.org/2000/svg" width="374" height="392">
<path d="M0 0 C123.42 0 246.84 0 374 0 C374 129.36 374 258.72 374 392 C250.58 392 127.16 392 0 392 C0 262.64 0 133.28 0 0 Z " fill="#FCFCFC" transform="translate(0,0)"/>
<path d="M0 0 C78.54 0 157.08 0 238 0 C238 76.56 238 153.12 238 232 C159.46 232 80.92 232 0 232 C0 155.44 0 78.88 0 0 Z " fill="#FE612B" transform="translate(39,34)"/>
<path d="M0 0 C15.51 0 31.02 0 47 0 C47 80.85 47 161.7 47 245 C-36.49 245 -119.98 245 -206 245 C-206 229.82 -206 214.64 -206 199 C-138.02 199 -70.04 199 0 199 C0 133.33 0 67.66 0 0 Z " fill="#FE612B" transform="translate(296,85)"/>
</svg>
