<?xml version="1.0" encoding="UTF-8"?>
<svg version="1.1" xmlns="http://www.w3.org/2000/svg" width="380" height="383">
<path d="M0 0 C125.4 0 250.8 0 380 0 C380 126.39 380 252.78 380 383 C254.6 383 129.2 383 0 383 C0 256.61 0 130.22 0 0 Z " fill="#FCFCFD" transform="translate(0,0)"/>
<path d="M0 0 C74.58 0 149.16 0 226 0 C226 71.61 226 143.22 226 217 C151.42 217 76.84 217 0 217 C0 145.39 0 73.78 0 0 Z " fill="#424EE6" transform="translate(52,51)"/>
<path d="M0 0 C14.85 0 29.7 0 45 0 C45 75.24 45 150.48 45 228 C-33.54 228 -112.08 228 -193 228 C-193 213.48 -193 198.96 -193 184 C-129.31 184 -65.62 184 0 184 C0 123.28 0 62.56 0 0 Z " fill="#414CE4" transform="translate(295,101)"/>
</svg>
